<svg width="200" height="75" viewBox="0 0 200 75" fill="none" xmlns="http://www.w3.org/2000/svg">
<path d="M40.8592 34.0215C41.3173 14.5343 10.7532 23.4633 11.0774 12.5809C11.1422 8.73443 14.4009 7.04027 20.3304 7.04027C27.6948 7.04027 31.3468 9.97048 31.2128 16.0988H39.7528C39.9472 6.25802 33.3651 0.0648276 20.1359 0.0648276C8.53614 0.0648276 2.08363 4.49903 1.88915 12.905C1.43104 30.7628 32.5828 23.917 32.2587 34.4105C32.1247 38.581 29 40.5345 21.9598 40.5345C12.7067 40.5345 8.53614 37.211 8.60096 29.7818H0.000508992C-0.0686404 41.1223 6.90681 47.5748 21.6356 47.5748C34.8648 47.5748 40.5998 42.4275 40.8592 34.0215ZM63.4094 46.7925H71.7506V31.5451L89.4744 0.847083H80.4807L67.58 22.8107L54.675 0.847083H45.6164L63.4094 31.4111V46.7925ZM133.071 33.1053L105.83 0.847083H98.5351V46.7925H106.876V14.5343L134.182 46.7925H141.481V0.847083H133.071V33.1053ZM163.96 56.8278C175.106 54.5459 188.724 55.5918 197.524 58.4572L198.894 52.0047C193.612 50.3105 185.989 49.1393 180.776 49.0745C191.4 46.4036 200 36.1695 200 23.917C200 8.99374 189.705 0 176.148 0C162.266 0 152.425 9.05857 152.425 24.1159C152.425 36.2991 161.03 47.3803 174.259 47.3803C176.8 47.3803 179.147 47.0518 181.165 46.1399C177.254 48.8108 169.63 49.8567 163.312 50.3753L163.96 56.8278ZM176.277 40.1455C167.677 40.1455 160.965 34.0863 160.965 23.917C160.965 13.8169 167.284 7.55889 176.018 7.55889C185.077 7.55889 191.529 13.6873 191.529 23.7874C191.529 33.8875 185.664 40.1455 176.277 40.1455Z" fill="black"/>
<path d="M1.62742 65.9526V73.4467H0.871094V65.9526H1.62742ZM12.821 74.9464L11.1398 73.3732C10.7908 73.4791 10.4148 73.5332 10.0118 73.5332C9.31704 73.5332 8.69362 73.3711 8.14042 73.0448C7.58723 72.7163 7.1518 72.2604 6.83523 71.6748C6.52082 71.0902 6.36415 70.4301 6.36415 69.6954C6.36415 68.9585 6.52082 68.2983 6.83523 67.716C7.1518 67.1347 7.58723 66.6809 8.14042 66.3546C8.69362 66.0294 9.31704 65.8662 10.0118 65.8662C10.7054 65.8662 11.3299 66.0294 11.8831 66.3546C12.4363 66.6809 12.8696 67.1347 13.184 67.716C13.5006 68.2983 13.6594 68.9585 13.6594 69.6954C13.6594 70.4592 13.4887 71.141 13.1494 71.7396C12.8091 72.3392 12.3477 72.7941 11.7664 73.1053L13.7977 74.9464H12.821ZM7.13344 69.6954C7.13344 70.3263 7.25877 70.8795 7.50944 71.3549C7.7601 71.8282 8.10261 72.1923 8.53803 72.4484C8.97562 72.7023 9.46723 72.8287 10.0118 72.8287C10.5585 72.8287 11.0501 72.7023 11.4855 72.4484C11.9199 72.1923 12.2635 71.8282 12.5141 71.3549C12.767 70.8795 12.8944 70.3263 12.8944 69.6954C12.8944 69.0644 12.767 68.5112 12.5141 68.0358C12.2635 67.5604 11.9199 67.1963 11.4855 66.9423C11.0501 66.6863 10.5585 66.5577 10.0118 66.5577C9.46723 66.5577 8.97562 66.6863 8.53803 66.9423C8.10261 67.1963 7.7601 67.5604 7.50944 68.0358C7.25877 68.5112 7.13344 69.0644 7.13344 69.6954ZM29.0938 71.5451C29.0938 71.8855 29.0127 72.2063 28.8517 72.5089C28.6929 72.8092 28.4466 73.0523 28.1127 73.2393C27.781 73.4273 27.3672 73.5202 26.8723 73.5202C26.3883 73.5202 25.9583 73.4327 25.5844 73.2566C25.2095 73.0783 24.9102 72.8352 24.6855 72.5262C24.4629 72.2182 24.3333 71.8725 24.2965 71.4889H25.0831C25.1112 71.7115 25.1933 71.9319 25.3295 72.1502C25.4645 72.3695 25.659 72.5521 25.9129 72.699C26.169 72.8438 26.4769 72.9151 26.8378 72.9151C27.3132 72.9151 27.6762 72.7887 27.9269 72.5348C28.1797 72.2787 28.3072 71.9557 28.3072 71.5667C28.3072 71.2329 28.2229 70.9617 28.0565 70.7542C27.8891 70.5446 27.6827 70.3825 27.4385 70.2702C27.1932 70.1556 26.8594 70.0303 26.4358 69.8942C25.9658 69.7472 25.5866 69.6046 25.2992 69.4663C25.014 69.328 24.7719 69.1249 24.5731 68.8569C24.3743 68.5868 24.2749 68.2281 24.2749 67.7808C24.2749 67.2135 24.4737 66.7522 24.8713 66.3978C25.2689 66.0434 25.8146 65.8662 26.5093 65.8662C27.2181 65.8662 27.7799 66.0412 28.1948 66.3892C28.6097 66.7349 28.8561 67.1671 28.9339 67.6857H28.1343C28.0706 67.3659 27.902 67.0828 27.6287 66.8343C27.3575 66.5869 26.9847 66.4626 26.5093 66.4626C26.0685 66.4626 25.7163 66.5772 25.4548 66.8041C25.1922 67.0288 25.0615 67.3432 25.0615 67.7462C25.0615 68.066 25.1436 68.3253 25.3078 68.5241C25.4721 68.7229 25.672 68.8764 25.9086 68.9823C26.1441 69.0892 26.4683 69.2092 26.881 69.341C27.3564 69.4912 27.741 69.637 28.0349 69.7775C28.3288 69.919 28.5773 70.1319 28.7826 70.4171C28.99 70.7002 29.0938 71.0762 29.0938 71.5451ZM34.5231 65.9526V70.4906C34.5231 71.2923 34.6981 71.8811 35.0503 72.2582C35.4015 72.6331 35.8812 72.82 36.4895 72.82C37.1 72.82 37.5765 72.6331 37.92 72.2582C38.2658 71.8811 38.4387 71.2923 38.4387 70.4906V65.9526H39.182V70.4906C39.182 71.5051 38.9368 72.2647 38.4473 72.7682C37.9568 73.2695 37.302 73.5202 36.4809 73.5202C35.6597 73.5202 35.0039 73.2695 34.5144 72.7682C34.0239 72.2647 33.7797 71.5051 33.7797 70.4906V65.9526H34.5231ZM44.8793 65.9526V73.4467H44.123V65.9526H44.8793ZM54.2533 65.9526V66.5577H52.114V73.4467H51.3707V66.5577H49.2443V65.9526H54.2533ZM59.378 66.5577V69.3842H62.2995V69.972H59.378V72.8287H62.6193V73.4467H58.6216V65.9526H62.6193V66.5577H59.378ZM71.8573 71.5451C71.8573 71.8855 71.7762 72.2063 71.6152 72.5089C71.4564 72.8092 71.2101 73.0523 70.8762 73.2393C70.5445 73.4273 70.1307 73.5202 69.6358 73.5202C69.1518 73.5202 68.7218 73.4327 68.3479 73.2566C67.973 73.0783 67.6737 72.8352 67.449 72.5262C67.2264 72.2182 67.0968 71.8725 67.06 71.4889H67.8466C67.8747 71.7115 67.9568 71.9319 68.0929 72.1502C68.228 72.3695 68.4225 72.5521 68.6764 72.699C68.9325 72.8438 69.2404 72.9151 69.6013 72.9151C70.0767 72.9151 70.4397 72.7887 70.6904 72.5348C70.9432 72.2787 71.0707 71.9557 71.0707 71.5667C71.0707 71.2329 70.9864 70.9617 70.82 70.7542C70.6526 70.5446 70.4462 70.3825 70.202 70.2702C69.9567 70.1556 69.6229 70.0303 69.1993 69.8942C68.7293 69.7472 68.3501 69.6046 68.0627 69.4663C67.7775 69.328 67.5354 69.1249 67.3366 68.8569C67.1378 68.5868 67.0384 68.2281 67.0384 67.7808C67.0384 67.2135 67.2372 66.7522 67.6348 66.3978C68.0324 66.0434 68.5781 65.8662 69.2728 65.8662C69.9816 65.8662 70.5434 66.0412 70.9583 66.3892C71.3732 66.7349 71.6196 67.1671 71.6974 67.6857H70.8978C70.8341 67.3659 70.6655 67.0828 70.3922 66.8343C70.121 66.5869 69.7482 66.4626 69.2728 66.4626C68.832 66.4626 68.4798 66.5772 68.2183 66.8041C67.9557 67.0288 67.825 67.3432 67.825 67.7462C67.825 68.066 67.9071 68.3253 68.0713 68.5241C68.2356 68.7229 68.4355 68.8764 68.6721 68.9823C68.9076 69.0892 69.2318 69.2092 69.6445 69.341C70.1199 69.4912 70.5045 69.637 70.7984 69.7775C71.0923 69.919 71.3408 70.1319 71.5461 70.4171C71.7535 70.7002 71.8573 71.0762 71.8573 71.5451ZM86.155 69.5657C86.6217 69.6586 86.9999 69.8747 87.2916 70.214C87.5823 70.5543 87.7281 70.9595 87.7281 71.4284C87.7281 72.0313 87.5218 72.5175 87.1101 72.8892C86.6974 73.2609 86.1031 73.4467 85.3252 73.4467H82.7191V65.9526H85.2906C86.0426 65.9526 86.6066 66.1212 86.9848 66.4583C87.3651 66.7932 87.5553 67.2438 87.5553 67.811C87.5553 68.3016 87.4235 68.6927 87.162 68.9866C86.8994 69.2805 86.5634 69.4739 86.155 69.5657ZM83.4754 69.3021H85.1955C85.7196 69.3021 86.1183 69.18 86.3927 68.9347C86.666 68.6905 86.8033 68.3545 86.8033 67.9277C86.8033 67.5107 86.6671 67.1822 86.397 66.9423C86.1291 66.7003 85.7142 66.5793 85.1523 66.5793H83.4754V69.3021ZM85.1955 72.8071C85.7541 72.8071 86.1896 72.6796 86.5007 72.4224C86.8141 72.1631 86.9718 71.8033 86.9718 71.342C86.9718 70.8871 86.8119 70.5273 86.4921 70.2615C86.1744 69.9968 85.7358 69.8639 85.1739 69.8639H83.4754V72.8071H85.1955ZM97.4004 65.9526L94.9845 70.5208V73.4467H94.2282V70.5208L91.808 65.9526H92.668L94.6042 69.7256L96.536 65.9526H97.4004ZM113.505 65.9526V73.4467H112.757V69.8942H108.699V73.4467H107.942V65.9526H108.699V69.2805H112.757V65.9526H113.505ZM119.254 65.9526V73.4467H118.497V65.9526H119.254ZM127.354 69.194V69.8207H123.205V69.194H127.354ZM133.434 72.8503H136.152V73.4467H132.677V65.9526H133.434V72.8503ZM141.299 65.9526V73.4467H140.543V65.9526H141.299ZM150.355 65.9526V66.5577H147.04V69.4188H149.91V70.0022H147.04V73.4467H146.284V65.9526H150.355ZM155.681 66.5577V69.3842H158.603V69.972H155.681V72.8287H158.923V73.4467H154.925V65.9526H158.923V66.5577H155.681Z" fill="black"/>
<path d="M0.0615234 57.0654H159.408" stroke="black" stroke-width="1.9" stroke-miterlimit="10"/>
</svg>
